<svg xmlns="http://www.w3.org/2000/svg" width="100" height="62.232" viewBox="0 0 100 62.232"><g transform="translate(-692.152 -881.012)"><path d="M786,914.036V916H696v-1.967h14.6a8.327,8.327,0,0,1-3.05-6.431,8.54,8.54,0,0,1,17.077,0,8.325,8.325,0,0,1-3.048,6.431h46.7a8.325,8.325,0,0,1-3.051-6.431,8.54,8.54,0,0,1,17.078,0,8.324,8.324,0,0,1-3.048,6.431ZM769.225,907.6a4.54,4.54,0,0,0,9.078,0h-2a2.539,2.539,0,0,1-5.078,0Zm4.539-6.431A6.432,6.432,0,1,0,780.3,907.6a6.486,6.486,0,0,0-6.539-6.431ZM711.545,907.6a4.54,4.54,0,0,0,9.078,0h-2a2.539,2.539,0,0,1-5.078,0Zm4.539-6.431a6.432,6.432,0,1,0,6.539,6.431,6.486,6.486,0,0,0-6.539-6.431ZM694,906.583v-5.9h2v-1.967h-2v-5.9h44l-2-1.967,2-7.868,2-1.967h16l2,1.967H746v7.868l2,1.967h10l2-1.967-4-5.9h2l6,5.9,22,1.967,2,1.967-2,1.967,2,1.967h2l2,5.9-2,1.967v1.967l-4,1.967h-2.12a10.2,10.2,0,0,0,.424-2.913,10.54,10.54,0,0,0-21.078,0,10.188,10.188,0,0,0,.423,2.913H726.2a10.2,10.2,0,0,0,.424-2.913,10.541,10.541,0,0,0-21.078,0,10.179,10.179,0,0,0,.423,2.913H702l-8-3.934Zm2-1.216,6.472,3.183h1.111q-.037-.472-.037-.947a12.541,12.541,0,0,1,25.078,0q0,.474-.037.947h32.675q-.037-.472-.037-.947a12.541,12.541,0,0,1,25.078,0c0,.19,0,.381-.014.571l1.71-.84v-1.566l1.712-1.684-1.153-3.4h-1.387l-4-3.934,2-1.967-.074-.073-22-1.967-1.1-1.08-3.172,3.119H747.172L744,891.661v-8.683h-3.172l-1.022,1.005-1.591,6.259,4.613,4.537H696v1.967h2v5.9h-2v2.718Z" fill="#da3832"/><text transform="translate(742.152 937.244)" fill="#da3832" font-size="14" font-family="Prompt-Regular, Prompt" letter-spacing="0.025em"><tspan x="-49.756" y="0">Pickup 2 door</tspan></text></g></svg>