<svg xmlns="http://www.w3.org/2000/svg" width="100" height="63.244" viewBox="0 0 100 63.244"><g transform="translate(-842.152 -880)"><path d="M847.726,908.046l1.863-1.87h-1.863L844,900.568v-7.479h1.863l1.863-1.869H844l1.863-1.87H873.8l-1.863-1.87,1.863-5.609,1.863-1.87h27.941v1.87l11.177,7.479h-3.726l-9.314-7.479h-20.49v7.479l3.725,1.87h5.588V883.74h1.863v7.479h37.255l5.588,1.869-1.863,1.87,1.863,1.87H939v3.74l-1.862,1.87,1.862,1.87v3.739l-5.588,1.87h-1.267a9.815,9.815,0,1,0-18.763,0h-36.82a9.815,9.815,0,1,0-18.763,0h-8.209l-1.863-1.87Zm75.037-9.012a7.987,7.987,0,0,1,5.112,14.1h5.537V915H849.589v-1.87h12.477a7.954,7.954,0,1,1,10.225,0h45.358a7.988,7.988,0,0,1,5.113-14.1Zm4.228,7.983a4.228,4.228,0,1,1-8.455,0H920.4a2.365,2.365,0,1,0,4.73,0Zm-4.227-6.113a6.113,6.113,0,0,1,.023,12.226h-.045a6.113,6.113,0,0,1,.022-12.226Zm-51.357,6.113a4.228,4.228,0,1,1-8.455,0h1.863a2.365,2.365,0,1,0,4.73,0Zm-4.228-6.113a6.113,6.113,0,0,1,.022,12.226h-.045a6.113,6.113,0,0,1,.022-12.226Zm-16.819,7.142h5.187c-.03-.342-.045-.686-.045-1.03a11.679,11.679,0,1,1,23.357,0c0,.344-.015.688-.045,1.03H911.13c-.03-.342-.045-.686-.045-1.03a11.679,11.679,0,1,1,23.357,0q0,.295-.015.59l2.71-.907v-1.617l-2.634-2.644,2.634-2.644v-1.1H934.5l-3.725-3.74,1.049-1.053-2.442-.817H884.541l-5.149-2.584V881.87h-2.954l-1.006,1.01-1.36,4.094,4.229,4.245H850.36l-3.726,3.739h-.771V900l2.86,4.305h5.363l-3.725,3.739Z" fill="#da3832"/><text transform="translate(892.152 937.244)" fill="#da3832" font-size="14" font-family="Prompt-Regular, Prompt" letter-spacing="0.025em"><tspan x="-49.896" y="0">Pickup 4 door</tspan></text></g></svg>