<svg xmlns="http://www.w3.org/2000/svg" width="112" height="62.252" viewBox="0 0 112 62.252"><g transform="translate(-395 -880.992)"><path d="M399.392,909.434l-2.2-2.188-2.2-2.188v-4.375l4.392-2.188H395l2.2-4.376,4.392-2.187H397.2l2.2-2.188h6.588l17.569-6.563,10.981-2.188H449.9l10.98,2.188,13.177,6.563-4.393,2.188-8.784-6.564L449.9,883.18H436.725l-10.981,6.563,4.392,2.188h2.2v-4.376l2.2,4.376h10.981v-6.564h2.2v6.564l21.961,2.188,8.784-4.376,19.765,4.376,6.588,2.188-2.2,2.188,2.2,2.188H507v4.375l-2.2,2.188h0v2.188l-2.2,2.188H497.93a9.733,9.733,0,1,0-18.425,0H428.389a9.733,9.733,0,1,0-18.454-.087l-10.542-2.1Zm89.324-8.454a7.5,7.5,0,0,1,5.316,12.83h8.576V916H397.2V913.81h16.663a7.537,7.537,0,1,1,10.633,0H483.4a7.5,7.5,0,0,1,5.317-12.83Zm3.145,7.508a3.145,3.145,0,0,1-6.29,0h2.2a.949.949,0,0,0,1.9,0Zm-3.145-5.321a5.321,5.321,0,1,1-5.341,5.321,5.331,5.331,0,0,1,5.341-5.321Zm-66.4,5.321a3.145,3.145,0,0,1-6.29,0h2.2a.949.949,0,0,0,1.9,0Zm-3.145-5.321a5.321,5.321,0,1,1-5.341,5.321,5.332,5.332,0,0,1,5.341-5.321Zm-18.7,4.251,6.775,1.35c0-.093,0-.187,0-.281a11.93,11.93,0,0,1,23.859,0q0,.474-.038.946h45.757q-.038-.471-.038-.946a11.93,11.93,0,0,1,23.859,0q0,.474-.038.946h1.09l.909-.906v-2.188l2.2-2.188v-1.282h-.91L499.5,898.5l1.236-1.232-3.11-1.033-18.893-4.183-8.656,4.311-22.484-2.24H429.618l-8.434-4.2,10.127-6.054-7.158,1.426-17.294,6.461-8.027,4-.28.557H408.7l-11.5,5.728v2.117l3.279,3.267Z" fill="#da3832"/><text transform="translate(451.152 937.244)" fill="#da3832" font-size="14" font-family="Prompt-Regular, Prompt" letter-spacing="0.025em"><tspan x="-21.581" y="0">Sedan</tspan></text></g></svg>