<svg xmlns="http://www.w3.org/2000/svg" width="84" height="62.244" viewBox="0 0 84 62.244"><g transform="translate(-558 -881)"><path d="M558,908v-6.749l2.211-2.25H558v-4.5l4.421-6.75,11.053-4.5L584.527,881h13.263l11.053,2.25L622.105,890h-4.421l-8.842-4.5-2.21,6.749V885.5l-8.842-2.25h-4.421v9h-2.21l-2.211-9h-4.421l-8.842,2.25,2.21,6.749-4.421-4.5-2.211,4.5,8.842,2.25h28.737l8.842-2.25h11.052l8.843,2.25L642,899h-4.421l2.21,2.25H642v9l-2.211,2.25h-4.959a9.743,9.743,0,0,0,.423-2.846,9.429,9.429,0,1,0-18.854,0,9.747,9.747,0,0,0,.422,2.846H580.4a9.741,9.741,0,0,0,.423-2.846,9.428,9.428,0,1,0-18.854,0,9.732,9.732,0,0,0,.411,2.807L558,908Zm67.826-5.69a7.283,7.283,0,0,1,7.216,7.345,7.385,7.385,0,0,1-2.021,5.095h8.769V917H558v-2.25h8.2a7.384,7.384,0,0,1-2.021-5.095,7.217,7.217,0,1,1,14.433,0,7.385,7.385,0,0,1-2.022,5.095H620.63a7.385,7.385,0,0,1-2.02-5.095,7.282,7.282,0,0,1,7.216-7.345Zm2.8,7.345a2.8,2.8,0,1,1-5.59,0h2.211a.585.585,0,1,0,1.169,0Zm-2.8-5.095a5.1,5.1,0,1,1-5.006,5.095,5.051,5.051,0,0,1,5.006-5.095Zm-51.633,5.095a2.8,2.8,0,1,1-5.59,0h2.211a.585.585,0,1,0,1.169,0Zm-2.8-5.095a5.1,5.1,0,1,1-5.006,5.095,5.051,5.051,0,0,1,5.006-5.095Zm-11.186,1.825a11.616,11.616,0,0,1,22.825,3.269q0,.3-.015.6H614.2q-.014-.3-.015-.6a11.639,11.639,0,1,1,23.275,0q0,.3-.015.6h1.424l.916-.932V903.5h-.916l-6.632-6.75h4.421l-.215-.218-7.984-2.031H617.956l-8.842,2.25H579.833l-11.78-3,3.606-7.34-7.78,3.167-3.669,5.6v1.569h5.336l-5.336,5.431v4.2Z" fill="#da3832"/><text transform="translate(600.152 937.244)" fill="#da3832" font-size="14" font-family="Prompt-Regular, Prompt" letter-spacing="0.025em"><tspan x="-14.378" y="0">SUV</tspan></text></g></svg>