<svg xmlns="http://www.w3.org/2000/svg" width="95" height="63.245" viewBox="0 0 95 63.245"><g transform="translate(-993 -880)"><path d="M994.863,907.634,993,903.95v-3.685h1.863v-5.526h26.078l-1.862-1.842H994.863l1.863-11.054L998.589,880h57.745l5.588,1.842,13.039,9.211h-3.726l-7.451-5.527h-14.9v3.684l1.863,1.842,18.627,1.843h7.451l7.451,3.684,1.862,1.843-1.862,1.842,1.862,1.842H1088v5.527l-3.725,3.685H1081.3a8.1,8.1,0,0,0,.167-1.642,8.256,8.256,0,0,0-16.511,0,8.114,8.114,0,0,0,.167,1.642h-49.373a8.11,8.11,0,0,0,.168-1.642,8.256,8.256,0,0,0-16.512,0,8.1,8.1,0,0,0,.061.991l-4.6-3.034Zm78.345-4.279a6.359,6.359,0,0,1,6.393,6.323,6.269,6.269,0,0,1-1.884,4.481h6.557V916H994.863v-1.842h8.286a6.269,6.269,0,0,1-1.883-4.481,6.393,6.393,0,0,1,12.786,0,6.268,6.268,0,0,1-1.884,4.481H1068.7a6.267,6.267,0,0,1-1.883-4.481,6.359,6.359,0,0,1,6.393-6.323Zm2.668,6.323a2.668,2.668,0,0,1-5.335,0h1.863a.8.8,0,0,0,1.609,0Zm-2.668-4.481a4.481,4.481,0,1,1-4.53,4.481,4.507,4.507,0,0,1,4.53-4.481Zm-62.882,4.481a2.668,2.668,0,0,1-5.335,0h1.863a.8.8,0,0,0,1.609,0Zm-2.668-4.481a4.481,4.481,0,1,1-4.53,4.481,4.506,4.506,0,0,1,4.53-4.481Zm-11.351,1.176,1.5.992a10.134,10.134,0,0,1,19.964,2.111h45.317a10.121,10.121,0,0,1,20.233,0h.178l2.634-2.605v-2.922h-.772l-3.725-3.684,1.863-1.842-.332-.328-6.787-3.356h-7.1L1049.9,892.82l-2.878-2.847v-6.29h14.3l-.258-.182-5.036-1.66H999.36l-.9.885-1.4,8.326h22.788l5.589,5.527H996.726v5.527h-1.863v1.407l1.445,2.858Z" fill="#da3832"/><text transform="translate(1041.152 937.244)" fill="#da3832" font-size="14" font-family="Prompt-Regular, Prompt" letter-spacing="0.025em"><tspan x="-13.02" y="0">Van</tspan></text></g></svg>